<svg height="30" width="32" xmlns="http://www.w3.org/2000/svg"><path d="m13.211 19.234c0 0-5.22-5.294-5.22-5.294 0 0 1.74-1.764 1.74-1.764 0 0 5.208 5.281 5.208 5.281 0 0 14.061-14.457 14.061-14.457 0 0 2 2 2 2 0 0-16.049 15.998-16.049 15.998 0 0-1.74-1.764-1.74-1.764zm2.917-18.234c-7.833 0-14.206 6.28-14.206 14 0 7.72 6.373 14 14.206 14 7.833 0 14.206-6.28 14.206-14 0-1.203-.154-2.397-.459-3.548 0 0 .981-.253.981-.253.327 1.234.493 2.513.493 3.801 0 8.271-6.828 15-15.221 15-8.393 0-15.221-6.729-15.221-15 0-8.271 6.828-15 15.221-15 3.249 0 6.35.995 8.967 2.878 0 0-.598.807-.598.807-2.442-1.756-5.336-2.685-8.369-2.685z" fill="#1f54cc"/></svg>