<svg height="43" width="42" xmlns="http://www.w3.org/2000/svg"><path d="m12.163.995c.252-.004.383.207.452.336 0 0 .656 2.26.656 2.26.494.155.965.362 1.415.599 0 0 2.071-1.153 2.071-1.153.177-.094.414-.056.554.088 0 0 2.027 2.012 2.027 2.012.146.146.177.392.072.569 0 0-1.152 2.071-1.152 2.071.238.451.443.92.598 1.415 0 0 2.275.642 2.275.642.193.057.337.25.336.452 0 0 0 2.873 0 2.873.001.202-.143.396-.336.452 0 0-2.289.657-2.289.657-.155.488-.349.955-.584 1.4 0 0 1.152 2.085 1.152 2.085.098.175.067.412-.072.555 0 0-2.027 2.027-2.027 2.027-.143.139-.38.171-.554.073 0 0-2.071-1.152-2.071-1.152-.448.236-.923.428-1.415.583 0 0-.656 2.275-.656 2.275-.051.199-.247.35-.452.35 0 0-2.858 0-2.858 0-.205 0-.401-.151-.452-.35 0 0-.656-2.275-.656-2.275-.492-.155-.967-.347-1.415-.583 0 0-2.07 1.152-2.07 1.152-.174.098-.411.066-.554-.073 0 0-2.027-2.027-2.027-2.027-.14-.143-.171-.38-.073-.555 0 0 1.152-2.085 1.152-2.085-.235-.445-.429-.912-.583-1.4 0 0-2.29-.657-2.29-.657-.193-.056-.337-.25-.335-.452 0 0 0-2.873 0-2.873-.002-.202.142-.395.335-.452 0 0 2.275-.642 2.275-.642.155-.495.36-.964.598-1.415 0 0-1.152-2.071-1.152-2.071-.105-.177-.073-.423.073-.569 0 0 2.027-2.012 2.027-2.012.139-.144.377-.182.554-.088 0 0 2.07 1.153 2.07 1.153.45-.237.921-.444 1.415-.599 0 0 .656-2.26.656-2.26.057-.193.251-.337.452-.336 0 0 2.858 0 2.858 0zm-.335.934c0 0-2.187 0-2.187 0 0 0-.598 2.144-.598 2.144-.046.155-.179.282-.336.321-.609.168-1.18.422-1.72.729-.138.076-.315.076-.452 0 0 0-1.969-1.094-1.969-1.094 0 0-1.531 1.531-1.531 1.531 0 0 1.093 1.955 1.093 1.955.082.141.082.325 0 .467-.307.54-.546 1.111-.714 1.72-.043.152-.169.278-.321.321 0 0-2.158.613-2.158.613 0 0 0 2.173 0 2.173 0 0 2.158.613 2.158.613.152.043.278.169.321.321.168.609.407 1.195.714 1.735.077.138.077.315 0 .452 0 0-1.079 1.969-1.079 1.969 0 0 1.517 1.517 1.517 1.517 0 0 1.969-1.094 1.969-1.094.14-.072.316-.066.452.015.54.307 1.111.547 1.72.714.157.039.29.166.336.321 0 0 .612 2.159.612 2.159 0 0 2.158 0 2.158 0 0 0 .613-2.159.613-2.159.046-.155.178-.282.335-.321.609-.167 1.181-.407 1.721-.714.135-.081.312-.087.452-.015 0 0 1.968 1.094 1.968 1.094 0 0 1.517-1.517 1.517-1.517 0 0-1.079-1.969-1.079-1.969-.076-.137-.076-.314 0-.452.307-.54.547-1.126.714-1.735.044-.152.169-.278.321-.321 0 0 2.158-.613 2.158-.613 0 0 0-2.173 0-2.173 0 0-2.158-.613-2.158-.613-.152-.043-.277-.169-.321-.321-.167-.609-.407-1.18-.714-1.72-.082-.142-.082-.326 0-.467 0 0 1.093-1.955 1.093-1.955 0 0-1.531-1.531-1.531-1.531 0 0-1.968 1.094-1.968 1.094-.138.076-.315.076-.452 0-.54-.307-1.112-.561-1.721-.729-.157-.039-.289-.166-.335-.321 0 0-.598-2.144-.598-2.144zm-1.328 4.069c3.028 0 5.495 2.468 5.495 5.496 0 3.028-2.467 5.497-5.495 5.497-3.028 0-5.496-2.469-5.496-5.497 0-3.028 2.468-5.496 5.496-5.496zm.234 2.465c-1.809 0-3.266 1.457-3.266 3.267 0 1.81 1.457 3.267 3.266 3.267 1.81 0 3.267-1.457 3.267-3.267 0-1.81-1.457-3.267-3.267-3.267zm20.357 9.334c.257-.005.396.194.452.336 0 0 .787 2.742.787 2.742.606.187 1.186.421 1.735.714 0 0 2.494-1.385 2.494-1.385.177-.095.415-.057.554.087 0 0 2.392 2.392 2.392 2.392.139.143.17.38.072.554 0 0-1.37 2.48-1.37 2.48.295.554.541 1.138.729 1.75 0 0 2.727.773 2.727.773.193.056.337.251.335.452 0 0 0 3.398 0 3.398.002.202-.142.396-.335.452 0 0-2.727.773-2.727.773-.189.614-.448 1.195-.744 1.75 0 0 1.385 2.48 1.385 2.48.105.177.074.424-.072.569 0 0-2.392 2.392-2.392 2.392-.143.139-.38.17-.554.073 0 0-2.494-1.386-2.494-1.386-.549.294-1.128.541-1.735.729 0 0-.787 2.728-.787 2.728-.051.199-.247.35-.452.35 0 0-3.383 0-3.383 0-.205 0-.401-.151-.452-.35 0 0-.788-2.728-.788-2.728-.606-.188-1.185-.435-1.735-.729 0 0-2.494 1.386-2.494 1.386-.174.097-.411.066-.554-.073 0 0-2.391-2.392-2.391-2.392-.146-.145-.178-.392-.073-.569 0 0 1.385-2.479 1.385-2.479-.296-.556-.555-1.137-.744-1.751 0 0-2.726-.773-2.726-.773-.194-.056-.338-.25-.336-.452 0 0 0-3.398 0-3.398-.002-.201.142-.396.336-.452 0 0 2.726-.773 2.726-.773.189-.612.434-1.196.73-1.75 0 0-1.371-2.48-1.371-2.48-.098-.174-.067-.411.073-.554 0 0 2.391-2.392 2.391-2.392.14-.144.377-.182.554-.087 0 0 2.494 1.385 2.494 1.385.549-.293 1.129-.527 1.735-.714 0 0 .788-2.742.788-2.742.056-.194.25-.338.452-.336 0 0 3.383 0 3.383 0zm-.336.934c0 0-2.712 0-2.712 0 0 0-.729 2.596-.729 2.596-.043.152-.169.277-.321.321-.727.2-1.426.494-2.07.86-.138.076-.315.076-.453 0 0 0-2.376-1.313-2.376-1.313 0 0-1.896 1.896-1.896 1.896 0 0 1.327 2.378 1.327 2.378.076.137.076.314 0 .452-.367.644-.66 1.329-.861 2.056-.043.152-.168.278-.32.321 0 0-2.61.744-2.61.744 0 0 0 2.698 0 2.698 0 0 2.61.744 2.61.744.152.044.277.169.32.321.201.727.494 1.412.861 2.056.081.141.081.326 0 .467 0 0-1.313 2.378-1.313 2.378 0 0 1.882 1.881 1.882 1.881 0 0 2.376-1.313 2.376-1.313.138-.076.315-.076.453 0 .644.367 1.343.66 2.07.861.152.043.278.169.321.321 0 0 .744 2.61.744 2.61 0 0 2.683 0 2.683 0 0 0 .743-2.61.743-2.61.044-.152.169-.278.321-.321.727-.201 1.427-.494 2.071-.861.138-.076.314-.076.452 0 0 0 2.377 1.313 2.377 1.313 0 0 1.881-1.881 1.881-1.881 0 0-1.312-2.378-1.312-2.378-.082-.141-.082-.326 0-.467.366-.644.66-1.329.86-2.056.043-.152.169-.278.321-.321 0 0 2.61-.744 2.61-.744 0 0 0-2.698 0-2.698 0 0-2.61-.744-2.61-.744-.152-.043-.278-.169-.321-.321-.2-.727-.494-1.412-.86-2.056-.077-.138-.077-.315 0-.452 0 0 1.326-2.378 1.326-2.378 0 0-1.895-1.896-1.895-1.896 0 0-2.377 1.313-2.377 1.313-.138.076-.314.076-.452 0-.644-.366-1.344-.66-2.071-.86-.152-.044-.277-.169-.321-.321 0 0-.729-2.596-.729-2.596zm-1.264 5.287c3.589 0 6.51 2.914 6.51 6.492 0 3.578-2.921 6.491-6.51 6.491-3.588 0-6.51-2.913-6.51-6.491 0-3.578 2.922-6.492 6.51-6.492zm-.092 2.18c-2.325 0-4.199 1.875-4.199 4.2 0 2.326 1.874 4.201 4.199 4.201 2.325 0 4.2-1.875 4.2-4.201 0-2.325-1.875-4.2-4.2-4.2z" fill="#1f54cc"/></svg>