<svg height="32" width="29" xmlns="http://www.w3.org/2000/svg"><path d="m0 32c0 0 0-1 0-1 0 0 0-1 0-1 0 0 0-6 0-6 0 0 0-1 0-1 0 0 0-6 0-6 0 0 0-1 0-1 0 0 0-6 0-6 0 0 0-2 0-2 0 0 29 0 29 0 0 0 0 2 0 2 0 0 0 6 0 6 0 0 0 1 0 1 0 0 0 6 0 6 0 0 0 1 0 1 0 0 0 6 0 6 0 0 0 1 0 1 0 0 0 1 0 1 0 0-29 0-29 0zm7-22c0 0-6 0-6 0 0 0 0 6 0 6 0 0 6 0 6 0 0 0 0-6 0-6zm0 7c0 0-6 0-6 0 0 0 0 6 0 6 0 0 6 0 6 0 0 0 0-6 0-6zm0 7c0 0-6 0-6 0 0 0 0 6 0 6 0 0 6 0 6 0 0 0 0-6 0-6zm7-14c0 0-6 0-6 0 0 0 0 6 0 6 0 0 6 0 6 0 0 0 0-6 0-6zm0 7c0 0-6 0-6 0 0 0 0 6 0 6 0 0 6 0 6 0 0 0 0-6 0-6zm0 7c0 0-6 0-6 0 0 0 0 6 0 6 0 0 6 0 6 0 0 0 0-6 0-6zm7-14c0 0-6 0-6 0 0 0 0 6 0 6 0 0 6 0 6 0 0 0 0-6 0-6zm0 7c0 0-6 0-6 0 0 0 0 6 0 6 0 0 6 0 6 0 0 0 0-6 0-6zm0 7c0 0-6 0-6 0 0 0 0 6 0 6 0 0 6 0 6 0 0 0 0-6 0-6zm7-14c0 0-6 0-6 0 0 0 0 6 0 6 0 0 6 0 6 0 0 0 0-6 0-6zm0 7c0 0-6 0-6 0 0 0 0 6 0 6 0 0 6 0 6 0 0 0 0-6 0-6zm0 7c0 0-6 0-6 0 0 0 0 6 0 6 0 0 6 0 6 0 0 0 0-6 0-6zm-28-20c0 0 6 0 6 0 0 0 0-4 0-4 0 0 2 0 2 0 0 0 0 4 0 4 0 0 13 0 13 0 0 0 0-4 0-4 0 0 2 0 2 0 0 0 0 4 0 4 0 0 6 0 6 0 0 0 0 2 0 2 0 0-29 0-29 0 0 0 0-2 0-2z" fill="#1f54cc"/></svg>