<svg height="36" width="40" xmlns="http://www.w3.org/2000/svg"><path d="m39 31c0 0-18 0-18 0 0 0 0 3 0 3 0 0 9 0 9 0 0 0 0 2 0 2 0 0-20 0-20 0 0 0 0-2 0-2 0 0 9 0 9 0 0 0 0-3 0-3 0 0-18 0-18 0 0 0-1 0-1 0 0 0 0-2 0-2 0 0 0-28 0-28 0 0 0-1 0-1 0 0 1 0 1 0 0 0 38 0 38 0 0 0 1 0 1 0 0 0 0 1 0 1 0 0 0 28 0 28 0 0 0 2 0 2 0 0-1 0-1 0zm0-30c0 0-38 0-38 0 0 0 0 28 0 28 0 0 38 0 38 0 0 0 0-28 0-28zm-28.814 17.303c0 0 2.682-8.093 2.682-8.093 0 0 .583 0 .583 0 0 0 2.648 8.078 2.648 8.078 0 0 2.491-8.078 2.491-8.078 0 0 1.733 0 1.733 0 0 0-.004.012-.004.012.415-.141.901-.218 1.47-.218 1.066 0 1.935.271 2.607.811.672.541 1.008 1.233 1.008 2.077 0 .644-.187 1.213-.562 1.709-.375.496-.815.828-1.32.997.69.213 1.239.577 1.651 1.086-.014-.214-.043-.418-.043-.643 0-1.73.489-3.167 1.466-4.312.977-1.144 2.24-1.717 3.79-1.717 1.327 0 2.365.209 3.115.625 0 0-.558 1.353-.558 1.353-.533-.369-1.372-.554-2.516-.554-1.071 0-1.931.438-2.578 1.314-.647.875-.97 2.004-.97 3.386 0 1.318.332 2.387.995 3.208.664.82 1.52 1.23 2.57 1.23 1.144 0 2.024-.385 2.641-1.155 0 0 .916 1.21.916 1.21-.966.913-2.21 1.369-3.732 1.369-1.594 0-2.848-.546-3.765-1.638-.303-.362-.538-.776-.741-1.214-.107.805-.44 1.456-1.025 1.934-.717.586-1.722.878-3.016.878-.544 0-1.077-.096-1.599-.288-.522-.193-.935-.424-1.241-.693 0 0 .8-1.218.8-1.218.544.57 1.233.854 2.066.854 1.543 0 2.315-.717 2.315-2.151 0-.654-.225-1.186-.675-1.595-.449-.408-1.046-.613-1.79-.613 0 0-.134 0-.134 0 0 0 0-1.281 0-1.281 0 0 .075 0 .075 0 1.411 0 2.116-.591 2.116-1.773 0-1.234-.664-1.851-1.991-1.851-.722 0-1.296.23-1.724.689 0 0-.142-.206-.142-.206 0 0-3.274 10.126-3.274 10.126 0 0-.524 0-.524 0 0 0-2.907-7.99-2.907-7.99 0 0-2.716 7.99-2.716 7.99 0 0-.525 0-.525 0 0 0-3.848-11.748-3.848-11.748 0 0 1.733 0 1.733 0 0 0 2.449 8.093 2.449 8.093z" fill="#1f54cc"/></svg>