<svg height="38" width="40" xmlns="http://www.w3.org/2000/svg"><path d="m33.506 30.001c-3.029 0-5.496-2.471-5.496-5.506 0-.563.11-1.097.268-1.609 0 0-14.75-4.979-14.75-4.979-.96 2.393-3.299 4.094-6.037 4.094-3.588 0-6.51-2.913-6.51-6.491 0-3.578 2.922-6.492 6.51-6.492 3.588 0 6.51 2.914 6.51 6.492 0 .497-.068.976-.175 1.441 0 0 14.832 5.008 14.832 5.008.92-1.756 2.736-2.97 4.848-2.97 3.029 0 5.495 2.471 5.495 5.506 0 3.035-2.466 5.506-5.495 5.506zm-26.107-18.803c-2.325 0-4.199 1.875-4.199 4.2 0 2.326 1.874 4.201 4.199 4.201 2.325 0 4.2-1.875 4.2-4.201 0-2.325-1.875-4.2-4.2-4.2zm26.029 9.64c-1.962 0-3.545 1.59-3.545 3.563 0 1.972 1.583 3.562 3.545 3.562 1.963 0 3.545-1.59 3.545-3.562 0-1.973-1.582-3.563-3.545-3.563zm-11.7-13.986c0 0-8.534 5.212-8.534 5.212 0 0-.521-.854-.521-.854 0 0 8.534-5.212 8.534-5.212 0 0 .521.854.521.854zm2.776 1.149c-1.928 0-3.497-1.573-3.497-3.504 0-1.931 1.569-3.504 3.497-3.504 1.927 0 3.497 1.573 3.497 3.504 0 1.931-1.57 3.504-3.497 3.504zm-.05-5.832c-1.249 0-2.256 1.013-2.256 2.268 0 1.255 1.007 2.267 2.256 2.267 1.249 0 2.256-1.012 2.256-2.267 0-1.255-1.007-2.268-2.256-2.268zm-6.95 27.824c1.273 0 2.379.693 2.99 1.716 0 0 7.713-4.711 7.713-4.711 0 0 .521.854.521.854 0 0-7.845 4.791-7.845 4.791.07.275.118.558.118.854 0 1.931-1.57 3.504-3.497 3.504-1.928 0-3.497-1.573-3.497-3.504 0-1.931 1.569-3.504 3.497-3.504zm-.05 5.711c1.249 0 2.256-1.012 2.256-2.267 0-1.255-1.007-2.267-2.256-2.267-1.249 0-2.256 1.012-2.256 2.267 0 1.255 1.007 2.267 2.256 2.267z" fill="#1f54cc"/></svg>