<svg height="39" width="54" xmlns="http://www.w3.org/2000/svg"><path d="m35.591 38.006c-5.947 0-11.228-2.94-14.595-7.472 0 0 1.795-1.394 1.795-1.394 2.979 3.928 7.653 6.477 12.916 6.477 8.98 0 16.287-7.39 16.287-16.473 0-9.083-7.307-16.472-16.287-16.472-5.088 0-9.635 2.374-12.624 6.082 0 0-1.758-1.736-1.758-1.736 3.378-4.277 8.516-7.016 14.266-7.016 10.148 0 18.405 8.524 18.405 19.002 0 10.478-8.257 19.002-18.405 19.002zm-10.038-27.219c2.404-2.982 6.061-4.892 10.154-4.892 7.223 0 13.1 5.943 13.1 13.249 0 7.306-5.877 13.249-13.1 13.249-4.233 0-7.993-2.049-10.389-5.209 0 0 .795-.615.795-.615 2.213 2.918 5.685 4.811 9.594 4.811 6.67 0 12.097-5.489 12.097-12.236 0-6.747-5.427-12.236-12.097-12.236-3.78 0-7.157 1.764-9.377 4.519 0 0-.777-.64-.777-.64zm3.939 3.242c0 0-.777-.639-.777-.639 1.655-2.054 4.174-3.369 6.992-3.369 4.974 0 9.02 4.093 9.02 9.123 0 5.03-4.046 9.123-9.02 9.123-2.915 0-5.504-1.411-7.154-3.587 0 0 .795-.615.795-.615 1.467 1.934 3.768 3.189 6.359 3.189 4.421 0 8.018-3.638 8.018-8.11 0-4.471-3.597-8.109-8.018-8.109-2.505 0-4.744 1.169-6.215 2.994zm6.215 2.074c-.94 0-1.769.447-2.321 1.131 0 0-1.549-1.275-1.549-1.275.919-1.14 2.301-1.883 3.87-1.883 2.767 0 5.011 2.269 5.011 5.068 0 2.799-2.244 5.069-5.011 5.069-1.622 0-3.049-.792-3.965-2.001 0 0 1.587-1.228 1.587-1.228.55.725 1.406 1.201 2.378 1.201 1.657 0 3.006-1.364 3.006-3.041 0-1.677-1.349-3.041-3.006-3.041zm.293 1.897c.554 0 1 1.44 1 2 0 .56-.446 1-1 1-.367 0-1.825-.702-2-1 0 0-15 0-15 0 0 0-2.673-5.869-2.673-5.869 0 0-4.89 11.583-4.89 11.583 0 0-2.699-9.363-2.699-9.363 0 0-1.738 3.649-1.738 3.649 0 0-7 0-7 0 0 0 0-1 0-1 0 0 6 0 6 0 0 0 3.053-5.173 3.053-5.173 0 0 2.563 8.884 2.563 8.884 0 0 4.631-10.971 4.631-10.971 0 0 3.753 7.26 3.753 7.26 0 0 14 0 14 0 .175-.298 1.633-1 2-1z" fill="#1f54cc"/></svg>