<svg height="38" width="59" xmlns="http://www.w3.org/2000/svg"><path d="m36.866 22.369c0 0 .432 1.552.432 1.552 0 0 11.702-8.921 11.702-8.921 0 0-1-1-1-1 0 0-11.134 8.369-11.134 8.369zm-14.804 12.631c0 0 31.938 0 31.938 0 0 0 3.082-7.404 3.082-11.383 0-11.454-9.682-20.772-21.582-20.772-4.799 0-9.237 1.516-12.825 4.075.003.1-1.18-1.108-1.305-1.365 3.935-2.859 8.831-4.556 14.13-4.556 12.958 0 23.5 10.146 23.5 22.618 0 4.345-1.282 8.405-3.498 11.854-.336.524-1.073 1.529-1.073 1.529 0 0-1.429 0-1.429 0 0 0-31 0-31 0m14-17c2.209 0 4 1.791 4 4 0 2.209-1.791 4-4 4-2.209 0-4-1.791-4-4 0-2.209 1.791-4 4-4zm-12.101-11.191c5.568-4.211 13.373-5.125 20.119-1.704 9.353 4.743 13.184 16.052 8.54 25.208-2.72 5.366-1.972 2.701-7.558 3.687 0 0-3 0-3 0 5.458-.945 7.341 1.142 10-4 4.537-8.774.854-19.443-8.285-23.989-6.349-3.157-13.657-2.461-19.048 1.2-.862.585-.667-.211-.667-.211 0 0-1.471.845-.101-.191zm-10.899 14.191c0 0 17 0 17 0 0 0 0 1 0 1 0 0-17 0-17 0 0 0 0-1 0-1zm3 4c0 0 17 0 17 0 0 0 0 1 0 1 0 0-17 0-17 0 0 0 0-1 0-1zm6 8c0 0 26 0 26 0 0 0 2 2 2 2 0 0-28 0-28 0 0 0 0-2 0-2zm-18-24c0 0 17 0 17 0 0 0 0 1 0 1 0 0-17 0-17 0 0 0 0-1 0-1zm3 4c0 0 17 0 17 0 0 0 0 1 0 1 0 0-17 0-17 0 0 0 0-1 0-1zm3 4c0 0 17 0 17 0 0 0 0 1 0 1 0 0-17 0-17 0 0 0 0-1 0-1zm-10-12c0 0 17 0 17 0 0 0 0 1 0 1 0 0-17 0-17 0 0 0 0-1 0-1zm20 24c0 0 17 0 17 0 0 0 0 1 0 1 0 0-17 0-17 0 0 0 0-1 0-1z" fill="#1f54cc"/></svg>