<svg height="44" width="46" xmlns="http://www.w3.org/2000/svg"><path d="m16 2c0 0-14 0-14 0 0 0 0 14 0 14 0 0 10.5 0 10.5 0 0 0-.5 2-.5 2 0 0-12 0-12 0 0 0 0-18 0-18 0 0 18 0 18 0 0 0 0 0 0 0 0 0 0 11.563 0 11.563 0 0-2 .562-2 .562 0 0 0-10.125 0-10.125m3 36c0 0-19 0-19 0 0 0 0-17 0-17 0 0 11.5 0 11.5 0 0 0 .125 2 .125 2 0 0-9.625 0-9.625 0 0 0 0 13 0 13 0 0 18 0 18 0 0 0-1 2-1 2zm25-15c0 0-10.375 0-10.375 0 0 0 0-2 0-2 0 0 12.375 0 12.375 0 0 0 0 0 0 0 0 0 0 17 0 17 0 0-17 0-17 0 0 0 5-2 5-2 0 0 10 0 10 0 0 0 0-13 0-13m-21-23c0 0 23 0 23 0 0 0 0 1 0 1 0 0-23 0-23 0 0 0 0-1 0-1zm0 3c0 0 23 0 23 0 0 0 0 1 0 1 0 0-23 0-23 0 0 0 0-1 0-1zm0 3c0 0 23 0 23 0 0 0 0 1 0 1 0 0-23 0-23 0 0 0 0-1 0-1zm0 3c0 0 23 0 23 0 0 0 0 1 0 1 0 0-23 0-23 0 0 0 0-1 0-1zm5.062 3c0 0 17.938 0 17.938 0 0 0 0 1 0 1 0 0-16.125 0-16.125 0 0 0-1.813-1-1.813-1zm3.501 3c0 0 14.437 0 14.437 0 0 0 0 1 0 1 0 0-13.688 0-13.688 0 0 0-.749-1-.749-1zm-9.063-4c-5.79 0-10.5 4.71-10.5 10.5 0 5.108 3.667 9.376 8.506 10.31.115.125-.056 1.027-.16.989-5.322-1.009-9.346-5.684-9.346-11.299 0-6.351 5.149-11.5 11.5-11.5 0 0 0 0 0 0 6.351 0 11.5 5.149 11.5 11.5 0 3.533-1.593 6.694-4.101 8.804-.031.057-.415-.861-.543-.857 2.23-1.927 3.644-4.775 3.644-7.947 0-5.79-4.71-10.5-10.5-10.5m0 5c-3.033 0-5.5 2.467-5.5 5.5 0 2.615 1.834 4.809 4.284 5.364.016.058-.067 1.057-.125.998-2.926-.71-5.159-3.232-5.159-6.362 0-3.59 2.91-6.5 6.5-6.5 0 0 0 0 0 0 3.59 0 6.5 2.91 6.5 6.5 0 1.971-.877 3.737-2.262 4.929.05.166-.567-.777-.56-.843 1.118-1.007 1.822-2.466 1.822-4.086 0-3.033-2.467-5.5-5.5-5.5m0 3c1.381 0 2.5 1.119 2.5 2.5 0 1.381-1.119 2.5-2.5 2.5-1.381 0-2.5-1.119-2.5-2.5 0-1.381 1.119-2.5 2.5-2.5zm.417 3.999c.057.004.107.027.146.073 0 0 10.911 12.727 10.911 12.727.014.017.022.034.022.046-.001.037-.07.108-.155.108 0 0-3.666-.078-3.666-.078 0 0-1.353-.029-1.353-.029 0 0 .372 1.302.372 1.302 0 0 1.34 4.768 1.34 4.768-.009.015-.037.053-.101.07 0 0-4.044 1.015-4.044 1.015-.095 0-.162-.055-.173-.095 0 0-1.342-4.727-1.342-4.727 0 0-.349-1.232-.349-1.232 0 0-1.109.64-1.109.64 0 0-3.093 1.783-3.093 1.783-.031.017-.063.027-.096.03 0 0-.084-.006-.084-.006-.034-.008-.072-.024-.099-.059-.02-.026-.017-.04-.015-.051 0 0 2.701-16.192 2.701-16.192.004-.022.046-.075.131-.09 0 0 .056-.003.056-.003m-.017-1c0 0-.129.007-.129.007-.528.057-.95.442-1.027.931 0 0-2.7 16.182-2.7 16.182-.049.293.025.586.21.826.184.24.456.396.765.442 0 0 .185.014.185.014.21 0 .417-.053.606-.159 0 0 3.104-1.789 3.104-1.789 0 0 1.342 4.726 1.342 4.726.137.484.604.821 1.133.821.075 0 .15-.006.223-.02 0 0 4.065-1.025 4.065-1.025.62-.159.991-.765.825-1.353 0 0-1.348-4.728-1.348-4.728 0 0 3.666.079 3.666.079.636 0 1.163-.488 1.174-1.089.005-.258-.087-.51-.26-.713 0 0-10.913-12.73-10.913-12.73-.224-.268-.559-.422-.921-.422 0 0 0 0 0 0z" fill="#1f54cc"/></svg>