<svg height="39" width="40" xmlns="http://www.w3.org/2000/svg"><path d="m0 39c0 0 0-1 0-1 0 0 0-1 0-1 0 0 0-24 0-24 0 0 0-1 0-1 0 0 0-6 0-6 0 0 0-2 0-2 0 0 1 0 1 0 0 0 5 0 5 0 0 0 0-4 0-4 0 0 2 0 2 0 0 0 0 4 0 4 0 0 24 0 24 0 0 0 0-4 0-4 0 0 2 0 2 0 0 0 0 4 0 4 0 0 5 0 5 0 0 0 1 0 1 0 0 0 0 2 0 2 0 0 0 6 0 6 0 0 0 1 0 1 0 0 0 24 0 24 0 0 0 1 0 1 0 0 0 1 0 1 0 0-40 0-40 0zm39-33c0 0-38 0-38 0 0 0 0 6 0 6 0 0 38 0 38 0 0 0 0-6 0-6zm0 7c0 0-38 0-38 0 0 0 0 24 0 24 0 0 38 0 38 0 0 0 0-24 0-24zm-28 2c0 0 1 0 1 0 0 0 0 1 0 1 0 0 0 3 0 3 0 0 0 1 0 1 0 0-1 0-1 0 0 0-3 0-3 0 0 0-1 0-1 0 0 0 0-1 0-1 0 0 0-3 0-3 0 0 0-1 0-1 0 0 1 0 1 0 0 0 3 0 3 0zm-3 4c0 0 3 0 3 0 0 0 0-3 0-3 0 0-3 0-3 0 0 0 0 3 0 3zm3 3c0 0 1 0 1 0 0 0 0 1 0 1 0 0 0 3 0 3 0 0 0 1 0 1 0 0-1 0-1 0 0 0-3 0-3 0 0 0-1 0-1 0 0 0 0-1 0-1 0 0 0-3 0-3 0 0 0-1 0-1 0 0 1 0 1 0 0 0 3 0 3 0zm-3 4c0 0 3 0 3 0 0 0 0-3 0-3 0 0-3 0-3 0 0 0 0 3 0 3zm3 3c0 0 1 0 1 0 0 0 0 1 0 1 0 0 0 3 0 3 0 0 0 1 0 1 0 0-1 0-1 0 0 0-3 0-3 0 0 0-1 0-1 0 0 0 0-1 0-1 0 0 0-3 0-3 0 0 0-1 0-1 0 0 1 0 1 0 0 0 3 0 3 0zm-3 4c0 0 3 0 3 0 0 0 0-3 0-3 0 0-3 0-3 0 0 0 0 3 0 3zm10-18c0 0 1 0 1 0 0 0 0 1 0 1 0 0 0 3 0 3 0 0 0 1 0 1 0 0-1 0-1 0 0 0-3 0-3 0 0 0-1 0-1 0 0 0 0-1 0-1 0 0 0-3 0-3 0 0 0-1 0-1 0 0 1 0 1 0 0 0 3 0 3 0zm-3 4c0 0 3 0 3 0 0 0 0-3 0-3 0 0-3 0-3 0 0 0 0 3 0 3zm3 3c0 0 1 0 1 0 0 0 0 1 0 1 0 0 0 3 0 3 0 0 0 1 0 1 0 0-1 0-1 0 0 0-3 0-3 0 0 0-1 0-1 0 0 0 0-1 0-1 0 0 0-3 0-3 0 0 0-1 0-1 0 0 1 0 1 0 0 0 3 0 3 0zm-3 4c0 0 3 0 3 0 0 0 0-3 0-3 0 0-3 0-3 0 0 0 0 3 0 3zm3 3c0 0 1 0 1 0 0 0 0 1 0 1 0 0 0 3 0 3 0 0 0 1 0 1 0 0-1 0-1 0 0 0-3 0-3 0 0 0-1 0-1 0 0 0 0-1 0-1 0 0 0-3 0-3 0 0 0-1 0-1 0 0 1 0 1 0 0 0 3 0 3 0zm-3 4c0 0 3 0 3 0 0 0 0-3 0-3 0 0-3 0-3 0 0 0 0 3 0 3zm10-18c0 0 1 0 1 0 0 0 0 1 0 1 0 0 0 3 0 3 0 0 0 1 0 1 0 0-1 0-1 0 0 0-3 0-3 0 0 0-1 0-1 0 0 0 0-1 0-1 0 0 0-3 0-3 0 0 0-1 0-1 0 0 1 0 1 0 0 0 3 0 3 0zm-3 4c0 0 3 0 3 0 0 0 0-3 0-3 0 0-3 0-3 0 0 0 0 3 0 3zm3 3c0 0 1 0 1 0 0 0 0 1 0 1 0 0 0 3 0 3 0 0 0 1 0 1 0 0-1 0-1 0 0 0-3 0-3 0 0 0-1 0-1 0 0 0 0-1 0-1 0 0 0-3 0-3 0 0 0-1 0-1 0 0 1 0 1 0 0 0 3 0 3 0zm-3 4c0 0 3 0 3 0 0 0 0-3 0-3 0 0-3 0-3 0 0 0 0 3 0 3zm3 3c0 0 1 0 1 0 0 0 0 1 0 1 0 0 0 3 0 3 0 0 0 1 0 1 0 0-1 0-1 0 0 0-3 0-3 0 0 0-1 0-1 0 0 0 0-1 0-1 0 0 0-3 0-3 0 0 0-1 0-1 0 0 1 0 1 0 0 0 3 0 3 0zm-3 4c0 0 3 0 3 0 0 0 0-3 0-3 0 0-3 0-3 0 0 0 0 3 0 3zm10-18c0 0 1 0 1 0 0 0 0 1 0 1 0 0 0 3 0 3 0 0 0 1 0 1 0 0-1 0-1 0 0 0-3 0-3 0 0 0-1 0-1 0 0 0 0-1 0-1 0 0 0-3 0-3 0 0 0-1 0-1 0 0 1 0 1 0 0 0 3 0 3 0zm-3 4c0 0 3 0 3 0 0 0 0-3 0-3 0 0-3 0-3 0 0 0 0 3 0 3zm3 3c0 0 1 0 1 0 0 0 0 1 0 1 0 0 0 3 0 3 0 0 0 1 0 1 0 0-1 0-1 0 0 0-3 0-3 0 0 0-1 0-1 0 0 0 0-1 0-1 0 0 0-3 0-3 0 0 0-1 0-1 0 0 1 0 1 0 0 0 3 0 3 0zm0 4c0 0 0-3 0-3 0 0-3 0-3 0 0 0 0 3 0 3 0 0 3 0 3 0zm-24-16c0 0-2 0-2 0 0 0 0-2 0-2 0 0 2 0 2 0 0 0 0 2 0 2zm26 0c0 0-2 0-2 0 0 0 0-2 0-2 0 0 2 0 2 0 0 0 0 2 0 2z" fill="#1f54cc"/></svg>