<svg height="44" width="45" xmlns="http://www.w3.org/2000/svg"><path d="m42.929 23.691c0 0 .276.267.276.267 0 0-19.406 20.029-19.406 20.029 0 0-.103-.1-.103-.1 0 0-.109.112-.109.112 0 0-18.507-17.927-18.507-17.927-3.187-1.799-5.08-4.119-5.08-6.683 0 0 0-5.945 0-5.945 0 0 7.662-6.56 7.662-6.56 1.575-3.409 7.742-5.887 15.338-5.887 7.853 0 14.179 2.648 15.481 6.236 0 0 6.519 5.325 6.519 5.325 0 0 0 6.721 0 6.721 0 1.575-.743 3.07-2.071 4.412zm1.071-4.412c0 0 0-6.156 0-6.156 0 0-5.606-2.431-5.606-2.431 0 0 2.376 13.526 2.376 13.526 2.028-1.453 3.23-3.145 3.23-4.939zm-4.125 6.679c-2.063 1.175-4.649 2.141-7.598 2.813 0 0 .533.335.533.335 0 0-7.525 11.912-7.525 11.912 0 0 14.59-15.06 14.59-15.06zm-15.796 15.097c0 0 7.687-12.168 7.687-12.168-2.54.541-5.329.862-8.264.923 0 0 .577 11.245.577 11.245zm-2.806-.69c0 0-8.927-11.629-8.927-11.629-1.617-.373-3.127-.828-4.486-1.363 0 0 13.413 12.992 13.413 12.992zm1.805.709c0 0-.577-11.24-.577-11.24 0 0-.001 0-.001 0-3.088 0-6-.284-8.653-.787 0 0 9.231 12.027 9.231 12.027zm-17.412-15.826c1.95 1.079 4.426 1.967 7.252 2.59 0 0 0 0 0 0 0 0 .001 0 .001 0 2.885.636 6.137.997 9.581.997 6.953 0 13.242-1.564 17.201-3.92 0 0-9.598-9.503-9.598-9.503-.076.018-.154.035-.231.053 0 0-6.945 12.913-6.945 12.913 0 0-.889-.015-.889-.015 0 0-6.414-13.014-6.414-13.014-.075-.019-.153-.035-.228-.055 0 0-11.739 8.008-11.739 8.008 0 0 2.009 1.946 2.009 1.946zm22.93-9.523c-1.733.31-3.612.487-5.596.487-2.183 0-4.248-.206-6.121-.578 0 0 5.627 11.417 5.627 11.417 0 0 6.09-11.326 6.09-11.326zm-27.596-1.821c0 0 0 5.485 0 5.485 0 1.041.4 2.039 1.11 2.976 0 0 .282-.289.282-.289 0 0 .256.249.256.249 0 0 4.617-13.77 4.617-13.77 0-.006.001-.012.002-.018 0 0-6.267 5.367-6.267 5.367zm6.701-3.504c0 0-3.883 11.583-3.883 11.583 0 0 10.334-7.05 10.334-7.05-3.211-1.038-5.535-2.64-6.451-4.533zm15.299-7.405c-8.097 0-13.74 2.956-13.74 5.609 0 2.654 5.643 5.61 13.74 5.61 8.098 0 13.74-2.956 13.74-5.61 0-2.653-5.642-5.609-13.74-5.609zm8.222 12.119c0 0 8.393 8.31 8.393 8.31 0 0-2.085-11.866-2.085-11.866-1.269 1.496-3.486 2.733-6.308 3.556zm7.345-5.436c0 0 2.83 1.227 2.83 1.227 0 0-2.669-2.18-2.669-2.18-.01.324-.073.641-.161.953z" fill="#1f54cc"/></svg>