<svg height="28" width="58" xmlns="http://www.w3.org/2000/svg"><path d="m27 11c0-1.105.895-2 2-2 1.105 0 2 .895 2 2 0 1.104-.895 2-2 2-1.105 0-2-.896-2-2zm19.5 17c-4.508 0-8.399-2.6-10.284-6.376 0 0-5.056-4.624-5.056-4.624 0 0-5.16 0-5.16 0 0 0-3.791 3.667-3.791 3.667-1.67 4.289-5.829 7.333-10.709 7.333-6.351 0-11.5-5.149-11.5-11.5 0-3.768 1.82-7.102 4.62-9.199 0 0-.222-.467-.222-.467 0 0 11.602-5.504 11.602-5.504 0 0 0-.33 0-.33 0 0 5 0 5 0 0 0 0 .063 0 .063 0 0 .546-.373.546-.373 0 0 3.454 4.778 3.454 4.778 0 0 0-.468 0-.468 0 0 7 0 7 0 0 0 0 1 0 1 0 0-7 0-7 0 0 0 0-.061 0-.061 0 0-.071.048-.071.048 0 0 1.299 1.796 1.299 1.796 0 0-.317.217-.317.217 0 0 .089 0 .089 0 0 0 0 7 0 7 0 0-1 1-1 1 0 0 0-8 0-8 0 0 .312 0 .312 0 0 0-.799-1.729-.799-1.729 0 0-.057.039-.057.039 0 0-3.456-4.779-3.456-4.779 0 0 0 .469 0 .469 0 0-4.506 0-4.506 0 0 0 .078.165.078.165 0 0-6.082 2.886-6.082 2.886.333-.029.669-.051 1.01-.051 6.351 0 11.5 5.149 11.5 11.5 0 .886-.11 1.745-.3 2.574 0 0 3.3-3.074 3.3-3.074 0 0 6 0 6 0 0 0 0 .395 0 .395 0 0 3.462 3.31 3.462 3.31-.296-1.018-.462-2.092-.462-3.205 0-6.249 4.987-11.322 11.197-11.485 0 0-5.473-2.55-5.473-2.55 0 0 .225-.465.225-.465 0 0-4.813 0-4.813 0 0 0-1.983 2.694-1.983 2.694 0 0-.153.306-.153.306 0 0-1.033 3-1.033 3 0 0 .033 0 .033 0 0 0 0 8 0 8 0 0-1-1-1-1 0 0 0-6.943 0-6.943 0 0-.01-.006-.01-.006 0 0 .01-.016.01-.016 0 0 0-.035 0-.035 0 0 .021 0 .021 0 0 0 1.279-2.148 1.279-2.148 0 0-.53.721-.53.721 0 0-.78-.522-.78-.522 0 0 3.716-5.048 3.716-5.048 0 0 .294.197.294.197 0 0 0-.2 0-.2 0 0 5 0 5 0 0 0 .929.929.929.929 0 0 7.339 3.42 7.339 3.42 5.011 1.241 8.732 5.756 8.732 11.151 0 6.351-5.149 11.5-11.5 11.5zm-35-21c-5.247 0-9.5 4.253-9.5 9.5 0 5.247 4.253 9.5 9.5 9.5 5.247 0 9.5-4.253 9.5-9.5 0-5.247-4.253-9.5-9.5-9.5zm35 0c-5.247 0-9.5 4.253-9.5 9.5 0 5.247 4.253 9.5 9.5 9.5 5.247 0 9.5-4.253 9.5-9.5 0-5.247-4.253-9.5-9.5-9.5zm0 17c-4.142 0-7.5-3.358-7.5-7.5 0-4.142 3.358-7.5 7.5-7.5 4.142 0 7.5 3.358 7.5 7.5 0 4.142-3.358 7.5-7.5 7.5zm0-13.688c-3.417 0-6.187 2.771-6.187 6.188 0 3.417 2.77 6.187 6.187 6.187 3.417 0 6.187-2.77 6.187-6.187 0-3.417-2.77-6.188-6.187-6.188zm-35 13.688c-4.142 0-7.5-3.358-7.5-7.5 0-4.142 3.358-7.5 7.5-7.5 4.142 0 7.5 3.358 7.5 7.5 0 4.142-3.358 7.5-7.5 7.5zm0-13.696c-3.422 0-6.196 2.774-6.196 6.196 0 3.422 2.774 6.196 6.196 6.196 3.422 0 6.196-2.774 6.196-6.196 0-3.422-2.774-6.196-6.196-6.196z" fill="#1f54cc"/></svg>