<svg height="23" width="23" xmlns="http://www.w3.org/2000/svg"><path d="m11.5 2.072c3.071 0 3.434.012 4.647.067 1.121.051 1.73.239 2.135.396.537.209.92.458 1.323.86.402.403.651.786.86 1.323.157.405.345 1.014.396 2.135.055 1.213.067 1.576.067 4.647 0 3.071-.012 3.434-.067 4.647-.051 1.121-.239 1.73-.396 2.135-.209.537-.458.92-.86 1.323-.403.402-.786.651-1.323.86-.405.157-1.014.345-2.135.396-1.212.055-1.576.067-4.647.067-3.071 0-3.435-.012-4.647-.067-1.121-.051-1.73-.239-2.135-.396-.537-.209-.92-.458-1.323-.86-.402-.403-.651-.786-.86-1.323-.157-.405-.345-1.014-.396-2.135-.055-1.213-.067-1.576-.067-4.647 0-3.071.012-3.434.067-4.647.051-1.121.239-1.73.396-2.135.209-.537.458-.92.86-1.323.403-.402.786-.651 1.323-.86.405-.157 1.014-.345 2.135-.396 1.213-.055 1.576-.067 4.647-.067m0-2.072c-3.123 0-3.515.013-4.741.069-1.224.056-2.06.25-2.792.535-.756.294-1.398.687-2.037 1.326-.639.639-1.032 1.281-1.326 2.037-.285.732-.479 1.567-.535 2.792-.056 1.226-.069 1.618-.069 4.741 0 3.123.013 3.515.069 4.741.056 1.224.25 2.06.535 2.792.294.756.687 1.397 1.326 2.037.639.639 1.281 1.032 2.037 1.326.732.285 1.568.479 2.792.535 1.226.056 1.618.069 4.741.069 3.123 0 3.515-.013 4.741-.069 1.224-.056 2.06-.25 2.792-.535.756-.294 1.397-.687 2.037-1.326.639-.64 1.032-1.281 1.326-2.037.285-.732.479-1.568.535-2.792.056-1.226.069-1.618.069-4.741 0-3.123-.013-3.515-.069-4.741-.056-1.225-.25-2.06-.535-2.792-.294-.756-.687-1.398-1.326-2.037-.64-.639-1.281-1.032-2.037-1.326-.732-.285-1.568-.479-2.792-.535-1.226-.056-1.618-.069-4.741-.069 0 0 0 0 0 0zm0 5.595c-3.261 0-5.905 2.644-5.905 5.905 0 3.261 2.644 5.905 5.905 5.905 3.261 0 5.905-2.644 5.905-5.905 0-3.261-2.644-5.905-5.905-5.905zm0 9.738c-2.117 0-3.833-1.716-3.833-3.833 0-2.117 1.716-3.833 3.833-3.833 2.117 0 3.833 1.716 3.833 3.833 0 2.117-1.716 3.833-3.833 3.833zm7.519-9.972c0 .762-.618 1.38-1.38 1.38-.762 0-1.38-.618-1.38-1.38 0-.762.618-1.38 1.38-1.38.762 0 1.38.618 1.38 1.38z" fill="#fff"/></svg>