<svg height="34" width="34" xmlns="http://www.w3.org/2000/svg"><path d="m17 3.063c4.539 0 5.077.017 6.869.099 1.658.076 2.558.353 3.157.586.794.308 1.36.676 1.955 1.271.595.595.963 1.161 1.271 1.955.233.599.51 1.499.586 3.157.082 1.792.099 2.33.099 6.869 0 4.539-.017 5.077-.099 6.869-.076 1.658-.353 2.558-.586 3.157-.308.794-.676 1.36-1.271 1.955-.595.595-1.161.963-1.955 1.271-.599.233-1.499.51-3.157.586-1.792.082-2.33.099-6.869.099-4.54 0-5.077-.017-6.869-.099-1.658-.076-2.558-.353-3.157-.586-.794-.308-1.36-.676-1.955-1.271-.595-.595-.963-1.161-1.271-1.955-.233-.599-.51-1.499-.586-3.157-.082-1.792-.099-2.33-.099-6.869 0-4.539.017-5.077.099-6.869.076-1.658.353-2.558.586-3.157.308-.794.676-1.36 1.271-1.955.595-.595 1.161-.963 1.955-1.271.599-.233 1.499-.51 3.157-.586 1.792-.082 2.33-.099 6.869-.099m0-3.063c-4.617 0-5.196.02-7.009.102-1.81.083-3.045.37-4.127.79-1.118.435-2.066 1.016-3.011 1.961-.945.945-1.526 1.893-1.961 3.011-.42 1.082-.707 2.317-.79 4.127-.082 1.813-.102 2.392-.102 7.009 0 4.617.02 5.196.102 7.009.083 1.81.37 3.045.79 4.127.435 1.118 1.016 2.066 1.961 3.011.945.945 1.893 1.526 3.011 1.96 1.082.421 2.317.708 4.127.791 1.813.082 2.392.102 7.009.102 4.617 0 5.196-.02 7.009-.102 1.81-.083 3.045-.37 4.127-.791 1.118-.434 2.066-1.015 3.011-1.96.945-.945 1.526-1.893 1.96-3.011.421-1.082.708-2.317.791-4.127.082-1.813.102-2.392.102-7.009 0-4.617-.02-5.196-.102-7.009-.083-1.81-.37-3.045-.791-4.127-.434-1.118-1.015-2.066-1.96-3.011-.945-.945-1.893-1.526-3.011-1.961-1.082-.42-2.317-.707-4.127-.79-1.813-.082-2.392-.102-7.009-.102 0 0 0 0 0 0zm0 8.27c-4.821 0-8.73 3.909-8.73 8.73 0 4.821 3.909 8.73 8.73 8.73 4.821 0 8.73-3.909 8.73-8.73 0-4.821-3.909-8.73-8.73-8.73zm0 14.397c-3.13 0-5.667-2.537-5.667-5.667 0-3.13 2.537-5.667 5.667-5.667 3.13 0 5.667 2.537 5.667 5.667 0 3.13-2.537 5.667-5.667 5.667zm11.115-14.742c0 1.127-.914 2.04-2.04 2.04-1.127 0-2.04-.913-2.04-2.04 0-1.126.913-2.04 2.04-2.04 1.126 0 2.04.914 2.04 2.04z" fill="#fff"/></svg>