<svg height="27" width="45" xmlns="http://www.w3.org/2000/svg"><path d="m21.551 25.972c0 0 2.51 0 2.51 0 0 0 .758-.088 1.146-.524.356-.4.345-1.152.345-1.152 0 0-.049-3.558 1.514-4.076 1.541-.511 3.521 3.401 5.618 4.906 1.586 1.137 2.792.845 2.792.845 0 0 5.609.006 5.609.006 0 0 2.934-.234 1.543-2.644-.114-.197-.811-1.783-4.171-5.042-3.517-3.411-3.046-2.859 1.191-8.759 2.58-3.593 3.611-5.787 3.289-6.726-.307-.896-2.191-.741-2.191-.741 0 0-6.329-.003-6.329-.003 0 0-.469-.047-.816.17-.339.212-.557.762-.557.762 0 0-1 2.832-2.333 5.198-2.812 4.989-3.937 5.253-4.396 4.943-1.07-.722-.802-2.901-.802-4.449 0-4.835.702-6.852-1.368-7.373-.686-.174-1.192-.288-2.947-.307-2.254-.024-4.161.007-5.241.56-.718.368-1.273 1.187-.935 1.234.418.058 1.363.267 1.864.979.647.92.624 2.986.624 2.986 0 0 .373 5.693-.868 6.4-.851.484-2.019-.506-4.526-5.032-1.285-2.319-2.255-4.931-2.255-4.931 0 0-.187-.479-.52-.735-.405-.311-.97-.409-.97-.409 0 0-6.002.002-6.002.002 0 0-.901.027-1.232.436-.294.364-.023 1.117-.023 1.117 0 0 4.698 11.572 10.018 17.36 4.879 5.308 10.419 4.999 10.419 4.999z" fill="#fff"/></svg>