<svg height="8" width="12" xmlns="http://www.w3.org/2000/svg"><path d="m .187 0c-.112 0-.187.072-.187.182 0 0 0 .727 0 .727 0 .109.077.213.152.25 0 0 5.66 2.773 5.66 2.773.113.036.265.036.34 0 0 0 5.66-2.773 5.66-2.773.113-.036.188-.141.188-.25 0 0 0-.727 0-.727 0-.11-.075-.182-.188-.182 0 0-11.625 0-11.625 0zm-.093 2.238c-.053 0-.094.044-.094.125 0 0 0 5.455 0 5.455 0 .109.075.182.187.182 0 0 11.625 0 11.625 0 .113 0 .188-.073.188-.182 0 0 0-5.455 0-5.455 0-.109-.077-.149-.152-.113 0 0-5.661 2.773-5.661 2.773-.112.036-.264.036-.339 0 0 0-5.696-2.773-5.696-2.773-.019-.01-.041-.012-.058-.012z" fill="#fff"/></svg>