<svg height="13" width="11" xmlns="http://www.w3.org/2000/svg"><path d="m8.101 8.413c-.813.169-1.428.905-1.444 1.792 0 0-.076-.082-.076-.082 0 0-.001.01-.001.01-1.768-1.044-3.2-2.671-4.074-4.644 0 0 .162 0 .162 0 .743 0 1.382-.466 1.656-1.132 0 0-2.029-3.358-2.029-3.358-.321.01-.731.023-.731.022-.581.359-1.106.801-1.56 1.311-.003.089-.004.178-.004.271 0 5.592 4.072 10.153 9.18 10.397.006-.004.012-.009.018-.014.082.008.165.014.247.014.09 0 .177-.002.262-.004.493-.47.92-1.014 1.267-1.614-.001 0 .017-.598.026-.928 0 0-2.899-2.041-2.899-2.041z" fill="#fff"/></svg>