<svg height="32" width="50" xmlns="http://www.w3.org/2000/svg"><path d="m0 32c0 0 0-2 0-2 0 0 5 0 5 0 0 0 0-29 0-29 0 0 0-1 0-1 0 0 1 0 1 0 0 0 38 0 38 0 0 0 1 0 1 0 0 0 0 1 0 1 0 0 0 29 0 29 0 0 5 0 5 0 0 0 0 2 0 2 0 0-50 0-50 0zm44-31c0 0-38 0-38 0 0 0 0 29 0 29 0 0 38 0 38 0 0 0 0-29 0-29zm-25 11c0 0-6 4-6 4 0 0 6 4 6 4 0 0 0 1 0 1 0 0-6.884-4.57-6.884-4.57 0 0 0-1.039 0-1.039 0 0 6.884-4.391 6.884-4.391 0 0 0 1 0 1zm10-2c0 0-6 12-6 12 0 0-2 0-2 0 0 0 6-12 6-12 0 0 2 0 2 0zm9.01 6.43c0 0-7.01 4.57-7.01 4.57 0 0 0-1 0-1 0 0 6.109-4 6.109-4 0 0-6.109-4-6.109-4 0 0 0-1 0-1 0 0 7.01 4.391 7.01 4.391 0 0 0 1.039 0 1.039z" fill="#1f54cc"/></svg>