<svg enable-background="new 0 0 46.8 45.9" viewBox="0 0 46.8 45.9" xmlns="http://www.w3.org/2000/svg"><path d="m46.3 19c-.7-1.3-2-2-3.4-2-.1 0-.1 0-.2 0-2-7.1-7.8-12.6-15.1-14.2-.1-.3-.2-.6-.4-.9-.7-1.3-2-2-3.4-2-.7 0-1.3.2-2 .5-.8.5-1.4 1.2-1.7 2.1-2.9.5-5.6 1.6-8 3.2-.5-.4-1.3-.7-2.2-.7-.6 0-1.3.2-1.9.5-1.9 1.1-2.6 3.5-1.5 5.4.1.1.2.3.3.4-1.7 2.6-2.8 5.5-3.2 8.7-.6 0-1.1.2-1.6.5-1.9 1.1-2.5 3.5-1.4 5.4.7 1.3 2 2 3.4 2 .1 0 .2 0 .3 0 2.1 7.3 8.2 12.9 15.8 14.2 0 .6.2 1.3.5 1.9.7 1.3 2 2 3.4 2 .7 0 1.3-.2 2-.5 1.3-.7 2-2.1 1.9-3.5 2.2-.5 4.2-1.3 6.1-2.5.8.9 1.9 1.5 3 1.5.7 0 1.3-.2 2-.5 1.9-1.1 2.5-3.5 1.4-5.4-.2-.3-.4-.6-.7-.9 1.9-2.7 3.2-5.8 3.6-9.2.5-.1 1.1-.2 1.6-.5 1.8-1.2 2.5-3.6 1.4-5.5zm-18.5-15.1c6.7 1.6 12.1 6.7 13.9 13.3-.3.1-.5.2-.8.3-1.1.7-1.8 1.8-1.9 3l-6.1.7c-.1-1.2-.5-2.5-1.1-3.6-1.6-2.8-4.4-4.4-7.3-4.5v-5.2c.5-.1 1-.2 1.4-.5 1.2-.8 1.9-2.1 1.9-3.5zm-.2 24.2c-1 .6-2.2.9-3.4.9-2.4 0-4.7-1.3-5.9-3.5-.9-1.6-1.1-3.5-.7-5.3.5-1.8 1.6-3.3 3.2-4.3 1-.6 2.2-.9 3.4-.9 2.4 0 4.7 1.3 5.9 3.5.9 1.6 1.1 3.5.7 5.3-.5 1.9-1.7 3.4-3.2 4.3zm-12.2-5.6l-7.6.8c-.1-.5-.2-.9-.5-1.4-.6-1-1.6-1.7-2.7-1.9.4-2.9 1.4-5.6 2.9-8 .7.5 1.5.8 2.4.8.7 0 1.3-.2 2-.5.1 0 .1-.1.2-.2l5.3 4.3c-1.4 1.8-2.1 3.9-2 6.1zm6.7-19c .2-.5.5-.9.9-1.1.3-.2.6-.3.9-.3.7 0 1.3.4 1.6.9.2.4.3.9.2 1.4-.1.5-.4.9-.9 1.1-.3.2-.6.3-.9.3-.7 0-1.3-.4-1.6-.9-.2-.4-.3-.9-.2-1.4zm1.4 4.4v5.3c-1.2.1-2.5.5-3.6 1.2-.7.4-1.4 1-1.9 1.6l-5.2-4.2c1.2-1.2 1.5-3.2.6-4.8-.1-.2-.2-.3-.3-.5 2.1-1.4 4.5-2.4 7-2.8-.1.8.1 1.5.5 2.2.6 1.2 1.7 1.8 2.9 2zm-15.4.6c.2-.5.5-.9.9-1.1.3-.2.6-.3.9-.3.7 0 1.3.4 1.6.9.2.4.3.9.2 1.4-.1.5-.4.9-.9 1.1-.3.2-.6.3-.9.3-.7 0-1.3-.4-1.6-.9-.2-.4-.3-.9-.2-1.4zm-5.8 16.4c-.2-.4-.3-.9-.2-1.4.2-.5.5-.9.9-1.1.3-.2.6-.3.9-.3.7 0 1.3.4 1.6.9.2.4.3.9.2 1.4-.1.5-.4.9-.9 1.1-.3.2-.6.3-.9.3-.7 0-1.3-.3-1.6-.9zm17.8 16.2c-7.1-1.3-12.9-6.6-14.9-13.4.2-.1.4-.2.6-.3 1.1-.7 1.8-1.8 1.9-3l7.7-.9c.2 1.1.5 2.1 1.1 3.2 1.5 2.7 4.1 4.2 6.9 4.4v7c-.5.1-1 .2-1.5.5-.9.5-1.5 1.4-1.8 2.5zm5.6 1.3c-.1.5-.4.9-.9 1.1-.3.2-.6.3-.9.3-.7 0-1.3-.4-1.6-.9-.2-.4-.3-.9-.2-1.4.1-.5.4-.9.9-1.1.3-.2.6-.3.9-.3.7 0 1.3.4 1.6.9.2.4.3.9.2 1.4zm1.6-2.4c-.6-1.1-1.7-1.8-2.8-1.9v-6.9c1.4-.1 2.8-.4 4.1-1.2.1-.1.2-.2.4-.2l5.2 4.6c-1.1 1.1-1.4 2.9-.8 4.3-1.7 1.1-3.7 1.9-5.7 2.3-.1-.4-.2-.7-.4-1zm11.4-2.6c-.1.5-.4.9-.9 1.1-.3.2-.6.3-.9.3-.7 0-1.3-.4-1.6-.9-.2-.4-.3-.9-.2-1.4.1-.5.4-.9.9-1.1.3-.2.6-.3.9-.3.7 0 1.3.4 1.6.9.2.4.3.9.2 1.4zm-1.8-4.4c-.7 0-1.3.2-2 .5-.1.1-.2.1-.3.2l-5.2-4.5c2.2-1.7 3.4-4.3 3.4-7l6.1-.7c.1.5.2.9.5 1.4.6 1.1 1.6 1.7 2.8 1.9-.4 3.2-1.6 6.2-3.5 8.7-.5-.3-1.1-.5-1.8-.5zm7.8-11.6c-.1.5-.4.9-.9 1.1-.3.2-.6.3-.9.3-.7 0-1.3-.4-1.6-.9-.2-.4-.3-.9-.2-1.4.1-.5.4-.9.9-1.1.3-.2.6-.3.9-.3.7 0 1.3.4 1.6.9.2.4.3.9.2 1.4z" fill="#1f54cc"/></svg>