<svg enable-background="new 0 0 51 38" viewBox="0 0 51 38" xmlns="http://www.w3.org/2000/svg"><path clip-rule="evenodd" d="m24 0v13h-7v-10h-10.3c-.6-1.2-1.8-2-3.2-2-1.9 0-3.5 1.6-3.5 3.5 0 1.9 1.6 3.5 3.5 3.5 1.8 0 3.2-1.3 3.4-3h8.1v10h9v3h-17.3c-.6-1.2-1.8-2-3.2-2-1.9 0-3.5 1.6-3.5 3.5 0 1.9 1.6 3.5 3.5 3.5 1.8 0 3.2-1.3 3.4-3h17.1v3h-9v7h-8.3c-.6-1.2-1.8-2-3.2-2-1.9 0-3.5 1.6-3.5 3.5 0 1.9 1.6 3.5 3.5 3.5 1.8 0 3.2-1.3 3.4-3h10.1v-7h7v13h27v-38zm-20.5 6c-.8 0-1.5-.7-1.5-1.5 0-.8.7-1.5 1.5-1.5.8 0 1.5.7 1.5 1.5 0 .8-.7 1.5-1.5 1.5zm0 15c-.8 0-1.5-.7-1.5-1.5 0-.8.7-1.5 1.5-1.5.8 0 1.5.7 1.5 1.5 0 .8-.7 1.5-1.5 1.5zm0 12c-.8 0-1.5-.7-1.5-1.5 0-.8.7-1.5 1.5-1.5.8 0 1.5.7 1.5 1.5 0 .8-.7 1.5-1.5 1.5zm46.5 4h-25v-35h25zm-18-14h-1v4h1zm3-2h-1v6h1zm3-2h-1v8h1zm3-3h-1v11h1zm3-5h-1v16h1z" fill="#1f54cc" fill-rule="evenodd"/></svg>