<svg height="48" width="116" xmlns="http://www.w3.org/2000/svg"><path d="m90 2c0 0-64 0-64 0 0 0 0 39 0 39 0 0-2 0-2 0 0 0 0-41 0-41 0 0 68 0 68 0 0 0 0 0 0 0 0 0 0 41 0 41 0 0-2 0-2 0 0 0 0-2 0-2 0 0 0-37 0-37m-74 44c0 0 82 0 82 0 0 0 0-2 0-2 0 0 2 0 2 0 0 0 0 4 0 4 0 0-86 0-86 0 0 0 0 0 0 0 0 0 0-4 0-4 0 0 2 0 2 0 0 0 0 2 0 2 0 0 0 0 0 0m9-6c0 0 65 0 65 0 0 0 0 1 0 1 0 0-65 0-65 0 0 0 0-1 0-1zm14-26c0 0 25 0 25 0 0 0 0 1 0 1 0 0-25 0-25 0 0 0 0-1 0-1zm0 3c0 0 25 0 25 0 0 0 0 1 0 1 0 0-25 0-25 0 0 0 0-1 0-1zm0 3c0 0 25 0 25 0 0 0 0 1 0 1 0 0-25 0-25 0 0 0 0-1 0-1zm0 3c0 0 25 0 25 0 0 0 0 1 0 1 0 0-25 0-25 0 0 0 0-1 0-1zm-25 21c0 0 10-3 10-3 0 0 2 0 2 0 0 0-12 4-12 4 0 0 0-1 0-1zm86 0c0 0-8-3-8-3 0 0-2 0-2 0 0 0 8 3 8 3 0 0 2 0 2 0zm-84 0c0 0 82 0 82 0 0 0 0 1 0 1 0 0-82 0-82 0 0 0 0-1 0-1zm-16-7c0 0 25 0 25 0 0 0 0 1 0 1 0 0-25 0-25 0 0 0 0-1 0-1zm91 0c0 0 25 0 25 0 0 0 0 1 0 1 0 0-25 0-25 0 0 0 0-1 0-1z" fill="#1f54cc"/></svg>