<svg height="63" width="60" xmlns="http://www.w3.org/2000/svg"><path d="m60 19c0 0-14 23.482-14 23.482 0 0 0 20.518 0 20.518 0 0-37.877 0-37.877 0 0 0-8.123-8.11-8.123-8.11 0 0 0-54.89 0-54.89 0 0 46 0 46 0 0 0 0 32.163 0 32.163 0 0 9.339-16.034 9.339-16.034 0 0 .866.5.866.5 0 0-.233.398-.233.398 0 0 1.028-1.027 1.028-1.027 0 0 3 3 3 3zm-16-17c0 0-42 0-42 0 0 0 0 52 0 52 0 0 7 7 7 7 0 0 35 0 35 0 0 0 0-15.163 0-15.163 0 0-2.567 4.305-2.567 4.305 0 0-.474-.273-.474-.273 0 0-.07.097-.07.097 0 0-1.263-.915-1.263-.915 0 0-3.538 5.224-3.538 5.224 0 0-.088-1.275-.088-1.275 0 0 2.849-4.512 2.849-4.512 0 0-1.2-.869-1.2-.869 0 0 .475-.655.475-.655 0 0-.557-.322-.557-.322 0 0 6.433-11.045 6.433-11.045 0 0 0-33.597 0-33.597zm-5.489 45.008c0 0 .873.633.873.633 0 0 .144-.229.144-.229 0 0 .825.566.825.566 0 0-.166.245-.166.245 0 0 .859.622.859.622 0 0 2.954-4.91 2.954-4.91 0 0 0-.247 0-.247 0 0 .778-1.046.778-1.046 0 0 12.667-21.058 12.667-21.058 0 0-2.872-2.154-2.872-2.154 0 0-16.062 27.578-16.062 27.578zm-31.511-8.008c0 0 33 0 33 0 0 0 0 1 0 1 0 0-33 0-33 0 0 0 0-1 0-1zm0-7c0 0 33 0 33 0 0 0 0 1 0 1 0 0-33 0-33 0 0 0 0-1 0-1zm0-7c0 0 33 0 33 0 0 0 0 1 0 1 0 0-33 0-33 0 0 0 0-1 0-1zm0-6c0 0 33 0 33 0 0 0 0 1 0 1 0 0-33 0-33 0 0 0 0-1 0-1zm0-7c0 0 33 0 33 0 0 0 0 1 0 1 0 0-33 0-33 0 0 0 0-1 0-1zm24 35c0 0-24 0-24 0 0 0 0-1 0-1 0 0 24 0 24 0 0 0 0 1 0 1z" fill="#1f54cc"/></svg>