<svg height="62" width="61" xmlns="http://www.w3.org/2000/svg"><path d="m61 55c0 0-47 0-47 0 0 0 0-.168 0-.168 0 0-.607.165-.607.165 0 0-.385-1.45-.385-1.45 0 0 3.661-6.4 3.661-6.4.002-.005.007-.006.009-.011 0 0-.911-.532-.911-.532-.001 0-.001-.001-.002-.001-.502-.293-.674-.942-.384-1.449 0 0 4.659-8.154 4.659-8.154 0 0-4.04 0-4.04 0 0 0-14.4 24-14.4 24 0 0 49.4 0 49.4 0 0 0 0 1 0 1 0 0-50 0-50 0 0 0-1 0-1 0 0 0 0-1 0-1 0 0 .615 0 .615 0 0 0 15.385-25 15.385-25 0 0 4.611 0 4.611 0 0 0 11.237-19.669 11.237-19.669-.713-1.024-1.147-2.257-1.147-3.602 0-1.4.468-2.683 1.238-3.729 0 0-3.939 0-3.939 0 0 0 0-1 0-1 0 0 4.85 0 4.85 0 .354-.314.734-.598 1.15-.828 0 0 0-7.172 0-7.172 0 0 .899.003.899.003 0 0 4.197 0 4.197 0 0 0 .904-.003.904-.003 0 0 0 7.174 0 7.174.414.23.793.513 1.145.826 0 0 4.855 0 4.855 0 0 0 0 1 0 1 0 0-3.944 0-3.944 0 .77 1.046 1.238 2.329 1.238 3.729 0 1.346-.424 2.592-1.135 3.622 0 0 16.455 28.803 16.455 28.803 0 .001 0 .001.001.002.289.507.116 1.156-.386 1.448 0 0-.911.532-.911.532.003.004.006.006.009.011 0 0 3.66 6.4 3.66 6.4.001.001.001.001.001.001 0 0-.12.452-.12.452 0 0 .132 0 .132 0 0 0 0 1 0 1zm-43.278-9.705c0 0 1.82 1.06 1.82 1.06 0 0 15.734-27.54 15.734-27.54-.689-.198-1.323-.522-1.895-.929 0 0-15.659 27.409-15.659 27.409zm20.278-43.295c0 0-2 0-2 0 0 0 0 4.469 0 4.469.327-.054.656-.103.998-.103.343 0 .673.049 1.002.103 0 0 0-4.469 0-4.469zm-1.002 6.488c-2.331 0-4.198 1.886-4.198 4.241 0 2.356 1.867 4.242 4.198 4.242 2.33 0 4.197-1.886 4.197-4.242 0-2.355-1.867-4.241-4.197-4.241zm3.629 9.42c-.572.411-1.217.71-1.906.911 0 0 15.732 27.536 15.732 27.536 0 0 1.82-1.06 1.82-1.06 0 0-15.646-27.387-15.646-27.387zm14.884 30.299c-.003-.004-.002-.009-.004-.014 0 0-.911.532-.911.532 0 0-.001.001-.001.001-.503.292-1.144.117-1.433-.39 0 0-16.164-28.295-16.164-28.295 0 0-9.117 15.959-9.117 15.959 0 0 5.119 0 5.119 0 0 0 0 1 0 1 0 0-5.691 0-5.691 0 0 0-6.475 11.336-6.475 11.336-.001 0-.001.001-.001.001-.29.507-.932.681-1.434.388 0 0-.91-.531-.91-.531-.002.004-.002.009-.004.013 0 0-3.31 5.793-3.31 5.793 0 0 43.645 0 43.645 0 0 0-3.309-5.793-3.309-5.793zm-18.513-34.415c-.58 0-1.05-.475-1.05-1.061 0-.585.47-1.06 1.05-1.06.579 0 1.049.475 1.049 1.06 0 .586-.47 1.061-1.049 1.061z" fill="#1f54cc"/></svg>