<svg height="90" width="61" xmlns="http://www.w3.org/2000/svg"><path d="m60.343 16.321c0 0 .018.01.018.01 0 0-.019.033-.019.033 0 0 0 0 0 0 0 0 0 0 0 0 0 0-11.342 19.645-11.342 19.645 0 0 0 10.991 0 10.991 0 0-1-1-1-1 0 0 0-8.258 0-8.258 0 0-3.657 6.334-3.657 6.334 0 0 3.494 2.194 3.494 2.194 0 0 .163-.27.163-.27 0 0 .271.542.271.542 0 0 .729.458.729.458 0 0-.333.333-.333.333 0 0 .333.667.333.667 0 0-12.015 20.099-12.015 20.099 0 0 .072.596.072.596 0 0-1 1.732-1 1.732 0 0-.404-2.656-.404-2.656 0 0-.596-.344-.596-.344 0 0 .434-.718.434-.718 0 0-1.169-7.676-1.169-7.676 0 0-.298-.173-.298-.173 0 0-12.804 22.177-12.804 22.177 0 0-.866-.5-.866-.5 0 0 12.804-22.177 12.804-22.177 0 0-10.787-6.227-10.787-6.227 0 0 0 0 0 0 0 0-.494-.286-.494-.286 0 0-11.657 20.19-11.657 20.19 0 0-.866-.5-.866-.5 0 0 11.273-19.526 11.273-19.526 0 0-6.71 2.228-6.71 2.228 0 0-.474.822-.474.822 0 0-.731-.422-.731-.422 0 0-1.269.422-1.269.422 0 0 .5-.866.5-.866 0 0-.232-.134-.232-.134 0 0 12.999-22.517 12.999-22.517 0 0 .558.322.558.322 0 0 9.13-4.565 9.13-4.565 0 0 5.326-9.225 5.326-9.225 0 0-.085-.049-.085-.049 0 0 .5-.866.5-.866 0 0 .085.05.085.05 0 0 2.415-4.183 2.415-4.183 0 0 0-.001 0-.001 0 0 .492-.852.492-.852 0 0 2.173-3.763 2.173-3.763 0 0 0 0 0 0 0 0 .335-.581.335-.581 0 0 .335.194.335.194 0 0 12.702-7.334 12.702-7.334 0 0 .405.703.405.703 0 0 1.411-.014 1.411-.014 0 0-.149 14.941-.149 14.941zm-24.482 42.446c0 0 .736 6.11.736 6.11 0 0 10.56-17.482 10.56-17.482 0 0-3.345-2.399-3.345-2.399 0 0-7.951 13.771-7.951 13.771 0 0 0 0 0 0zm-1.732-1.001c0 0 6-10.392 6-10.392 0 0-11.258-6.5-11.258-6.5 0 0-6 10.393-6 10.393 0 0 11.258 6.499 11.258 6.499zm-19.176-5.321c0 0 6.186-2.178 6.186-2.178 0 0 6-10.393 6-10.393 0 0 0 0 0 0 0 0 .283-.491.283-.491 0 0 1.718-2.976 1.718-2.976 0 0-3.689-2.145-3.689-2.145 0 0-10.498 18.183-10.498 18.183zm11.299-19.571c0 0-.019.032-.019.032 0 0 3.461 2.542 3.461 2.542 0 0 3.486-6.038 3.486-6.038 0 0-6.928 3.464-6.928 3.464zm3.119 7.134c0 0 11.258 6.5 11.258 6.5 0 0 12.085-20.931 12.085-20.931 0 0-11.258-6.501-11.258-6.501 0 0-12.085 20.932-12.085 20.932zm12.585-21.798c0 0 11.258 6.5 11.258 6.5 0 0 2.415-4.183 2.415-4.183 0 0-11.258-6.5-11.258-6.5 0 0-2.415 4.183-2.415 4.183zm4.812-8.334c0 0-1.897 3.286-1.897 3.286 0 0 11.258 6.499 11.258 6.499 0 0 2.302-3.987 2.302-3.987 0 0 .126-12.605.126-12.605 0 0-11.789 6.807-11.789 6.807zm-46.201 60.766c0 0 7.211-12.49 7.211-12.49 0 0 .866.5.866.5 0 0-7.211 12.49-7.211 12.49 0 0-.866-.5-.866-.5zm24.565-10.969c0 0-17.912 29.364-17.912 29.364 0 0-.866-.5-.866-.5 0 0 17.912-29.364 17.912-29.364 0 0 .866.5.866.5zm10.512 14.979c0 0-7.211 12.49-7.211 12.49 0 0-.866-.5-.866-.5 0 0 7.211-12.49 7.211-12.49 0 0 .866.5.866.5z" fill="#1f54cc"/></svg>