<svg height="61" width="46" xmlns="http://www.w3.org/2000/svg"><path d="m16 2c0 0 0 14 0 14 0 0-14 0-14 0 0 0 0-14 0-14 0 0 14 0 14 0m2-2c0 0-18 0-18 0 0 0 0 18 0 18 0 0 18 0 18 0 0 0 0-18 0-18 0 0 0 0 0 0zm26 2c0 0 0 14 0 14 0 0-21 0-21 0 0 0 0-14 0-14 0 0 21 0 21 0m2-2c0 0-25 0-25 0 0 0 0 18 0 18 0 0 25 0 25 0 0 0 0-18 0-18 0 0 0 0 0 0zm-2 23c0 0 0 20 0 20 0 0-42 0-42 0 0 0 0-20 0-20 0 0 42 0 42 0m2-2c0 0-46 0-46 0 0 0 0 24 0 24 0 0 46 0 46 0 0 0 0-24 0-24 0 0 0 0 0 0zm-46 27c0 0 46 0 46 0 0 0 0 1 0 1 0 0-46 0-46 0 0 0 0-1 0-1zm0 4c0 0 46 0 46 0 0 0 0 1 0 1 0 0-46 0-46 0 0 0 0-1 0-1zm0 4c0 0 46 0 46 0 0 0 0 1 0 1 0 0-46 0-46 0 0 0 0-1 0-1zm0 4c0 0 28 0 28 0 0 0 0 1 0 1 0 0-28 0-28 0 0 0 0-1 0-1z" fill="#1f54cc"/></svg>