<svg height="32" width="50" xmlns="http://www.w3.org/2000/svg"><path d="m0 32c0 0 0-2 0-2 0 0 5 0 5 0 0 0 0-29 0-29 0 0 0-1 0-1 0 0 1 0 1 0 0 0 38 0 38 0 0 0 1 0 1 0 0 0 0 1 0 1 0 0 0 29 0 29 0 0 5 0 5 0 0 0 0 2 0 2 0 0-50 0-50 0zm44-31c0 0-38 0-38 0 0 0 0 29 0 29 0 0 38 0 38 0 0 0 0-29 0-29zm-28 14.545c0-4.724 3.802-8.547 8.499-8.547.537 0 1.073.045 1.565.18 0 0-.313 1.754-.313 1.754-.402-.09-.85-.135-1.252-.135-3.713 0-6.71 3.014-6.71 6.748 0 1.304.403 2.564 1.074 3.644 0 0 1.565-1.575 1.565-1.575 0 0 .94 5.129.94 5.129 0 0-5.324-.72-5.324-.72 0 0 1.521-1.53 1.521-1.53-1.029-1.439-1.565-3.149-1.565-4.948zm8.499 6.703c3.713 0 6.71-3.014 6.71-6.748 0-1.26-.403-2.519-1.074-3.599 0 0-1.566 1.575-1.566 1.575 0 0-.939-5.129-.939-5.129 0 0 5.323.72 5.323.72 0 0-1.521 1.53-1.521 1.53 1.029 1.439 1.566 3.148 1.566 4.858 0 4.723-3.802 8.547-8.499 8.547-.492 0-1.029-.045-1.566-.135 0 0 .313-1.754.313-1.754.403.09.85.135 1.253.135z" fill="#fff"/></svg>