<svg height="44" width="40" xmlns="http://www.w3.org/2000/svg"><path d="m40 27c0 0-.249 0-.249 0-.704 4.664-3.015 8.795-6.35 11.815 0 0 .034.034.034.034 0 0-.707.707-.707.707 0 0-.097-.097-.097-.097-3.202 2.619-7.221 4.276-11.631 4.495 0 0 0 .046 0 .046 0 0-2 0-2 0 0 0 0-.048 0-.048-5.121-.253-9.725-2.437-13.124-5.828 0 0-.018.018-.018.018 0 0-.707-.707-.707-.707 0 0 .031-.032.031-.032-2.794-3.079-4.647-7.028-5.081-11.403 0 0-.101 0-.101 0 0 0 0-2 0-2 0-5.165 1.972-9.855 5.188-13.398 0 0-.037-.037-.037-.037 0 0 .707-.707.707-.707 0 0 .02.02.02.02 3.399-3.389 8.002-5.574 13.122-5.828 0 0 0-.05 0-.05 0 0 2 0 2 0 0 0 0 .05 0 .05 4.764.237 9.081 2.145 12.398 5.138 0 0 .037-.037.037-.037 0 0 .707.707.707.707 0 0-.02.02-.02.02 3.624 3.613 5.878 8.596 5.878 14.122 0 .338-.034.666-.051 1 0 0 .051 0 .051 0 0 0 0 2 0 2zm-6.584-16.416c0 0-1.395 1.395-1.395 1.395 0 0-.707-.707-.707-.707 0 0 1.378-1.379 1.378-1.379-3.134-2.813-7.204-4.608-11.692-4.843 0 0 0 1.95 0 1.95 0 0-2 0-2 0 0 0 0-1.95 0-1.95-4.844.253-9.197 2.326-12.416 5.534 0 0 1.395 1.395 1.395 1.395 0 0-.707.707-.707.707 0 0-1.377-1.376-1.377-1.376-3.035 3.361-4.895 7.801-4.895 12.69 0 0 2 0 2 0 0 0 0 2 0 2 0 0-1.893 0-1.893 0 .429 4.099 2.167 7.801 4.781 10.698 0 0 1.384-1.384 1.384-1.384 0 0 .707.707.707.707 0 0-1.397 1.396-1.397 1.396 3.218 3.211 7.573 5.283 12.418 5.536 0 0 0-1.953 0-1.953 0 0 2 0 2 0 0 0 0 1.954 0 1.954 4.134-.216 7.905-1.762 10.922-4.204 0 0-1.316-1.315-1.316-1.315 0 0 .708-.707.708-.707 0 0 1.38 1.38 1.38 1.38 3.153-2.84 5.349-6.722 6.046-11.108 0 0-1.74 0-1.74 0 0 0 0-2 0-2 0 0 1.949 0 1.949 0 .018-.333.051-.662.051-1 0-5.249-2.142-9.983-5.584-13.416zm-13.416 17.416c-1.105 0-2-.895-2-2 0-.739.405-1.376 1-1.723 0 0 0-14.277 0-14.277 0 0 1 0 1 0 0 0 0 14 0 14 .738 0 1.376.405 1.723 1 0 0 9.277 0 9.277 0 0 0 0 2 0 2 0 0-9.277 0-9.277 0-.347.595-.985 1-1.723 1zm3-26c0 0-6 0-6 0 0 0 0 2 0 2 0 0-1 0-1 0 0 0 0-2 0-2 0 0 0-1 0-1 0 0 0-1 0-1 0 0 8 0 8 0 0 0 0 1 0 1 0 0 0 1 0 1 0 0 0 2 0 2 0 0-1 0-1 0 0 0 0-2 0-2z" fill="#f9fcf5"/></svg>