<svg height="39" width="36" xmlns="http://www.w3.org/2000/svg"><path d="m34 39c0 0-31 0-31 0 0 0-2 0-2 0 0 0 0-1 0-1 0 0 0-22 0-22 0 0 0-1 0-1 0 0 .403 0 .403 0 0 0-.554-1.144-.554-1.144 0 0 28.651-13.856 28.651-13.856 0 0 .5 1.034.5 1.034 0 0 0-1.034 0-1.034 0 0 2 0 2 0 0 0 0 15 0 15 0 0 2 0 2 0 0 0 2 0 2 0 0 0 0 1 0 1 0 0 0 22 0 22 0 0 0 1 0 1 0 0-2 0-2 0zm-4-37.57c0 0-28.059 13.57-28.059 13.57 0 0 1.059 0 1.059 0 0 0 6 0 6 0 0 0 18-8.757 18-8.757 0 0 0-.243 0-.243 0 0 1 0 1 0 0 0 0 1.034 0 1.034 0 0 .155.321.155.321 0 0-.155.074-.155.074 0 0 0 7.571 0 7.571 0 0 2 0 2 0 0 0 0-13.57 0-13.57zm-3 6.475c0 0-14.9 7.095-14.9 7.095 0 0 14.9 0 14.9 0 0 0 0-7.095 0-7.095zm7 8.095c0 0-2 0-2 0 0 0-2 0-2 0 0 0-27 0-27 0 0 0 0 22 0 22 0 0 31 0 31 0 0 0 0-22 0-22zm-4 11c0 0-2 0-2 0 0 0 0-2 0-2 0 0 2 0 2 0 0 0 0 2 0 2z" fill="#f9fcf5"/></svg>