<svg height="44" width="45" xmlns="http://www.w3.org/2000/svg"><path d="m43.943 19.889c-.336.831-.846 1.608-1.526 2.277-1.347 1.324-3.119 1.99-4.884 1.99-.758 0-1.515-.129-2.241-.374 0 0-11.411 11.221-11.411 11.221.249.713.38 1.457.38 2.203.001 1.736-.676 3.478-2.023 4.802-1.347 1.325-3.118 1.99-4.883 1.989-1.612.001-3.229-.553-4.524-1.66-.211-.181-.301-.462-.234-.729.068-.268.281-.475.554-.537 0 0 3.794-.869 3.794-.869 0 0 .949-3.076.949-3.076 0 0-2.234-2.347-2.234-2.347 0 0-3.859.882-3.859.882-.271.061-.553-.029-.734-.236-.181-.207-.23-.494-.127-.749.335-.831.846-1.608 1.526-2.276 1.347-1.325 3.118-1.991 4.884-1.99.758 0 1.514.129 2.24.374 0 0 11.411-11.221 11.411-11.221-.25-.714-.381-1.458-.381-2.204-.001-1.735.677-3.477 2.025-4.802 1.346-1.324 3.118-1.99 4.882-1.989 1.613 0 3.23.553 4.524 1.66.212.181.302.462.235.73-.068.267-.281.474-.554.537 0 0-3.794.869-3.794.869 0 0-.388 2.761-.388 2.761 0 0 2.15 2.15 2.15 2.15 0 0 3.382-.37 3.382-.37.271-.062.553.028.734.236.181.207.23.494.127.748zm-25.651 21.074c-.007-.004-.013-.008-.02-.013 0 0-.026.082-.026.082-.04.13.017.04.046-.069zm-2.264-7.698c.004-.006.006-.009.012-.015 0 0-.299.005-.299.005.097-.022.192-.005.287.01zm19.842-20.512c.227.039.475.102.605.072-.433-.182-.456-.132-.605-.072zm2.755 8.672c-.26.059-.013-.137-.194-.328 0 0-2.823-2.965-2.823-2.965-.182-.191-.246-.463-.169-.713 0 0-.039-4.594-.039-4.594-1.388.001-.64-.272-1.7.769-1.06 1.043-1.587 2.402-1.588 3.766 0 .717.146 1.433.439 2.101 0 0 .003.009.003.009 0 0 .005.018.005.018.034.086.052.174.052.262 0 0-.001.003-.001.003 0 .093-.018.185-.053.271 0 0-.004.007-.004.007-.037.087-.09.166-.158.234 0 0-.003.003-.003.003 0 0-12.084 11.883-12.084 11.883 0 0-.004.003-.004.003-.069.067-.15.12-.238.155 0 0-.007.004-.007.004-.087.034-.181.052-.276.053 0 0-.003 0-.003 0-.089 0-.179-.019-.266-.052 0 0-.018-.005-.018-.005 0 0-.01-.003-.01-.003-.679-.287-1.407-.431-2.136-.431-1.389.001-.241.334-1.3 1.375-.014.014-.01.009-.017.015.158.026.308.085.421.203 0 0 2.823 2.966 2.823 2.966.182.191.246.463.169.713 0 0-1.124 3.641-1.124 3.641 1.293.071 1.836 1.192 2.862.184 1.059-1.042 1.586-2.401 1.587-3.766 0-.717-.146-1.433-.438-2.101 0 0-.003-.009-.003-.009 0 0-.006-.018-.006-.018-.034-.086-.052-.174-.052-.262 0 0 0-.002 0-.002.001-.094.019-.186.054-.272 0 0 .004-.006.004-.006.037-.087.09-.167.159-.235 0 0 .002-.004.002-.004 0 0 12.086-11.883 12.086-11.883 0 0 .003-.001.003-.001.07-.068.151-.121.24-.157 0 0 .006-.003.006-.003.087-.035.181-.052.276-.053 0 0 .003 0 .003 0 .089 0 .179.018.267.051 0 0 .017.006.017.006 0 0 .009.003.009.003.68.286 1.408.43 2.137.43.653 0 .695.185.67.276.044-.067.157-.208.42-.466 0 0 0-1.075 0-1.075zm-10.182-14.58c-.089.088-.197.151-.318.186 0 0-2.824.807-2.824.807 0 0-8.206 8.069-8.206 8.069 0 0 .511.503.511.503.371.364.56.849.559 1.326.001.477-.188.961-.559 1.325 0 0-.717.706-.717.706-.225.221-.526.335-.821.334-.188 0-.377-.051-.549-.142 0 0-.533.524-.533.524.092.17.144.356.144.54.001.29-.115.586-.34.807 0 0-8.028 7.894-8.028 7.894-.657.646-1.525.972-2.386.972-.862 0-1.73-.326-2.387-.972-.658-.647-.99-1.501-.988-2.347-.002-.847.33-1.701.988-2.347 0 0 8.028-7.894 8.028-7.894.224-.222.526-.336.821-.335.188 0 .377.051.549.142 0 0 .533-.524.533-.524-.093-.17-.145-.355-.144-.54-.001-.29.115-.586.34-.807 0 0 .717-.705.717-.705.37-.365.862-.55 1.348-.549.485-.001.978.184 1.348.549 0 0 .512.503.512.503 0 0 8.206-8.067 8.206-8.067 0 0 .821-2.777.821-2.777.036-.119.1-.225.189-.313 0 0 2.546-2.504 2.546-2.504.292-.286.763-.286 1.054 0 0 0 2.133 2.096 2.133 2.096.138.137.218.325.218.519 0 .193-.08.381-.218.517 0 0-2.547 2.504-2.547 2.504zm-11.891 10.601c0 0-1.037-1.02-1.037-1.02 0 0-1.04-1.023-1.04-1.023-.083-.081-.185-.119-.294-.12-.109.001-.211.039-.294.12 0 0-.522.513-.522.513.093.169.145.355.144.54.001.29-.114.586-.339.807 0 0-.925.909-.925.909-.225.221-.526.335-.82.334-.189.001-.378-.05-.55-.142 0 0-7.322 7.201-7.322 7.201.693.166 1.818 1.919 2.436 2.847 0 0 7.552-7.427 7.552-7.427-.093-.169-.144-.355-.144-.54-.001-.289.114-.586.34-.806 0 0 .924-.91.924-.91.225-.221.526-.335.82-.334.188-.001.377.051.549.142 0 0 .522-.513.522-.513.083-.082.121-.182.122-.289-.001-.107-.039-.207-.122-.289z" fill="#fff"/></svg>