<svg height="15" width="26" xmlns="http://www.w3.org/2000/svg"><path d="m12.743 14.828c0 0 1.435 0 1.435 0 0 0 .433-.048.655-.29.203-.221.197-.638.197-.638 0 0-.028-1.97.865-2.257.881-.283 2.012 1.884 3.21 2.717.907.63 1.595.468 1.595.468 0 0 3.206.003 3.206.003 0 0 1.676-.129.881-1.464-.065-.109-.463-.988-2.383-2.792-2.01-1.889-1.741-1.583.68-4.85 1.475-1.99 2.064-3.205 1.88-3.725-.175-.496-1.252-.41-1.252-.41 0 0-3.617-.002-3.617-.002 0 0-.267-.026-.466.094-.194.118-.318.422-.318.422 0 0-.572 1.569-1.333 2.878-1.607 2.763-2.25 2.909-2.512 2.738-.612-.4-.459-1.607-.459-2.464 0-2.678.401-3.794-.781-4.083-.392-.096-.681-.159-1.684-.17-1.288-.013-2.378.004-2.995.31-.411.204-.727.658-.534.684.238.032.778.148 1.065.542.37.51.356 1.653.356 1.653 0 0 .213 3.153-.496 3.544-.486.269-1.153-.28-2.586-2.786-.734-1.284-1.288-2.731-1.288-2.731 0 0-.107-.265-.298-.407-.231-.172-.554-.226-.554-.226 0 0-3.43.001-3.43.001 0 0-.514.015-.703.241-.169.202-.014.619-.014.619 0 0 2.685 6.408 5.725 9.613 2.788 2.939 5.953 2.768 5.953 2.768z" fill="#fff"/></svg>